# xmcd
#
# Track frame offsets: 
#        150
#        30023
#        47125
#        64475
#        79252
#        96727
#        115405
#        133028
#        151549
#        168053
#        187839
#        206485
#        225154
#        244159
#        263931
#        289285
#
# Disc length: 4323 seconds
#
# Revision: 0
# Processed by: cddbd v1.5.2PL0 Copyright (c) Steve Scherf et al.
# Submitted via: ExactAudioCopy v0.99pb1
#
DISCID=d410e110
DTITLE=Various Artist - Music Miy 3
DYEAR=2007
DGENRE=Other
TTITLE0=Sarah Brightman-A Question of Honour
TTITLE1=Mariah Carey-Without you
TTITLE2=蔡琴-渡口
TTITLE3=蔡琴-六月茉莉
TTITLE4=蔡琴-三年
TTITLE5=陈慧娴-多少柔情多少梦
TTITLE6=陈慧娴-傻女
TTITLE7=陈慧娴-逝去的诺言
TTITLE8=邓丽君-几多愁
TTITLE9=邓丽君-人面桃花
TTITLE10=谭晶-红颜为谁红
TTITLE11=童彤-遇见你是我的缘
TTITLE12=俞静-红豆红
TTITLE13=俞静-相逢是首歌
TTITLE14=俞静-祝福你一生
TTITLE15=龚月-为你祈福
EXTD=
EXTT0=
EXTT1=
EXTT2=
EXTT3=
EXTT4=
EXTT5=
EXTT6=
EXTT7=
EXTT8=
EXTT9=
EXTT10=
EXTT11=
EXTT12=
EXTT13=
EXTT14=
EXTT15=
PLAYORDER=
